<svg viewBox="0 0 356 96" version="1.1" xmlns="http://www.w3.org/2000/svg" xmlns:xlink="http://www.w3.org/1999/xlink" xml:space="preserve" x="0" y="0" width="356" height="96">
	<g>
		<path d="M 138.2813 59.0469 C 138.9375 59.8438 139.6563 60.5625 140.4531 61.1875 C 141.25 61.8281 142.1406 62.3438 143.125 62.75 C 144.0938 63.1563 145.1563 63.3594 146.2969 63.3594 C 147.2656 63.3594 148.1563 63.1875 148.9531 62.8438 C 149.75 62.5 150.4375 62.0781 151.0313 61.5469 C 151.625 61.0313 152.0938 60.4844 152.4688 59.8906 C 152.8438 59.3125 153.125 58.7969 153.3281 58.3281 C 153.4219 58.1094 153.4844 57.875 153.4844 57.6406 C 153.4844 57.1563 153.2969 56.7188 152.9375 56.3438 C 152.5781 55.9688 152.1406 55.7813 151.625 55.7813 C 151.2188 55.7813 150.875 55.8906 150.5625 56.1094 C 150.25 56.3281 150.0313 56.6094 149.9063 56.9531 C 149.9063 57 149.8281 57.1719 149.6875 57.4531 C 149.5313 57.75 149.3125 58.0625 149.0313 58.375 C 148.7344 58.7031 148.3594 59 147.9063 59.25 C 147.4531 59.5156 146.9219 59.6406 146.2969 59.6406 C 145.1563 59.6406 144.1406 59.3594 143.2656 58.7656 C 142.3906 58.1875 141.6094 57.4688 140.9531 56.5938 C 140.2813 55.7344 139.7031 54.7969 139.2344 53.7813 C 138.7656 52.7813 138.375 51.8438 138.0625 50.9844 C 137.75 50.125 137.5313 49.4219 137.4063 48.8594 C 137.2813 48.3125 137.2188 48.0469 137.2188 48.0781 C 137.125 47.625 136.9063 47.2656 136.5625 47 C 136.2188 46.75 135.8281 46.6094 135.4063 46.6094 C 134.8438 46.6094 134.4063 46.7969 134.0625 47.1719 C 133.7188 47.5469 133.5625 48.0156 133.5625 48.5625 C 133.5625 48.8906 133.5625 49.2031 133.5781 49.5156 C 133.5938 49.8281 133.6094 50.1563 133.6094 50.4688 C 133.6094 52.0625 133.4531 53.6406 133.1406 55.1875 C 132.8281 56.7344 132.4063 58.2031 131.9063 59.5781 C 131.4063 60.9531 130.8438 62.2344 130.25 63.4063 C 129.6563 64.5781 129.0625 65.5938 128.5 66.4375 C 127.9219 67.2813 127.3906 67.9531 126.8906 68.4375 C 126.3906 68.9375 126 69.1719 125.75 69.1719 C 125.3438 69.1719 124.8438 68.8438 124.25 68.1719 C 123.6406 67.5156 123.0625 66.5938 122.5156 65.4219 C 121.9531 64.25 121.4844 62.8438 121.0938 61.2188 C 120.7031 59.5938 120.5156 57.8125 120.5156 55.8906 C 120.5156 54.2656 120.6406 53.0313 120.9063 52.2188 C 121.1563 51.4063 121.3125 50.9688 121.3438 50.9063 C 121.4688 50.6875 121.5469 50.4063 121.5469 50.0781 C 121.5469 49.625 121.375 49.2031 121.0469 48.8281 C 120.7188 48.4531 120.2813 48.2656 119.7344 48.2656 C 119.375 48.2656 119.0625 48.3594 118.7813 48.5156 C 118.5 48.6719 118.2813 48.9063 118.125 49.2031 C 118.0313 49.3594 117.7969 50 117.4219 51.1094 C 117.0469 52.2188 116.8594 53.8438 116.8594 55.9844 C 116.8594 58.4219 117.1563 60.6875 117.7813 62.7656 C 118.4063 64.8594 119.1719 66.6563 120.1094 68.1719 C 121.0313 69.6875 122 70.8594 123.0313 71.7031 C 124.0625 72.5469 125 72.9688 125.8438 72.9688 C 126.5938 72.9063 127.4844 72.4531 128.5313 71.6094 C 129.5625 70.7656 130.5938 69.6094 131.625 68.1406 C 132.6563 66.6719 133.625 64.9531 134.5313 62.9844 C 135.4375 61.0156 136.1406 58.9063 136.625 56.625 C 137.0781 57.4375 137.625 58.25 138.2813 59.0469 L 138.2813 59.0469 Z" fill="#261d01"/>
		<path d="M 187.75 57.6875 C 187.75 57.25 187.5781 56.8125 187.2344 56.4063 C 186.8906 56 186.4375 55.7813 185.8906 55.7813 C 185.5313 55.7813 185.2031 55.8906 184.8906 56.0781 C 184.5781 56.2813 184.3438 56.5625 184.1875 56.9063 C 183.8906 57.5313 183.5313 58.2656 183.1094 59.1094 C 182.6719 59.9531 182.1875 60.8438 181.6406 61.75 C 181.0781 62.6563 180.4688 63.5625 179.8125 64.4531 C 179.1406 65.3594 178.4375 66.1563 177.7031 66.8438 C 176.9688 67.5469 176.2188 68.1094 175.4531 68.5313 C 174.6875 68.9688 173.9219 69.1719 173.1406 69.1719 C 171.9375 69.1719 171 68.7656 170.3125 67.9531 C 169.625 67.1406 169.125 66.1719 168.7813 65.0625 C 168.4375 63.9688 168.2031 62.8438 168.1094 61.7188 C 168.0156 60.5938 167.9531 59.7344 167.9219 59.1094 C 167.8906 58.6563 167.7031 58.25 167.3594 57.8906 C 167.0156 57.5313 166.6094 57.3438 166.1719 57.3438 C 165.6719 57.3438 165.25 57.5 164.8906 57.8125 C 164.5313 58.125 164.3281 58.5156 164.2656 58.9688 C 164.0313 60.6563 163.625 62.125 163.0625 63.3594 C 162.4844 64.6094 161.8438 65.625 161.1563 66.4375 C 160.4531 67.25 159.7188 67.8594 158.9531 68.25 C 158.1875 68.6406 157.5156 68.8281 156.9375 68.8281 C 156.125 68.8281 155.4375 68.6719 154.8906 68.3438 C 154.3281 68.0156 153.8906 67.5938 153.5625 67.0625 C 153.2344 66.5469 153 65.9688 152.875 65.3281 C 152.75 64.7031 152.6875 64.0781 152.6875 63.4531 C 152.6875 61.4688 153 59.75 153.6406 58.2969 C 154.2656 56.8594 155.0625 55.6563 156 54.6875 C 156.9375 53.7344 157.9844 53.0313 159.125 52.5625 C 160.2656 52.1094 161.3438 51.875 162.3594 51.875 C 163.0313 51.875 163.6406 51.9531 164.1875 52.1094 C 164.7188 52.2656 165.1875 52.4375 165.5781 52.625 C 165.9688 52.8125 166.2813 53 166.5 53.1719 C 166.7188 53.3594 166.875 53.4844 166.9531 53.5469 C 167.2969 53.9063 167.7344 54.0781 168.2656 54.0781 C 168.75 54.0781 169.1719 53.8906 169.5313 53.5156 C 169.8906 53.1406 170.0781 52.7188 170.0781 52.2188 C 170.0781 51.7813 169.8906 51.3438 169.5313 50.9063 C 169.5 50.875 169.3125 50.7344 169 50.4531 C 168.6719 50.1719 168.2031 49.875 167.6094 49.5469 C 167 49.2188 166.2656 48.9219 165.4219 48.6406 C 164.5781 48.3594 163.6563 48.2188 162.6563 48.2188 C 161.1563 48.2188 159.5938 48.5469 157.9844 49.2031 C 156.3594 49.8594 154.8906 50.8281 153.5625 52.125 C 152.2188 53.4375 151.125 55.0469 150.2656 56.9844 C 149.4063 58.9219 148.9844 61.1719 148.9844 63.7031 C 148.9844 64.9844 149.1563 66.1563 149.5313 67.2188 C 149.9063 68.2969 150.4375 69.2344 151.125 70.0313 C 151.8125 70.8281 152.6406 71.4375 153.6094 71.875 C 154.5781 72.3125 155.6719 72.5313 156.8906 72.5313 C 158.4219 72.5313 159.9375 72 161.4688 70.9063 C 163 69.8125 164.3125 68.3438 165.4375 66.4844 C 166.0156 68.3125 166.9531 69.8281 168.2344 71.0313 C 169.5156 72.2188 171.1094 72.8281 173 72.8281 C 174.3281 72.8281 175.5938 72.5 176.7969 71.875 C 178 71.25 179.125 70.4375 180.1719 69.4688 C 181.2031 68.5 182.1563 67.4219 183 66.25 C 183.8438 65.0781 184.5938 63.9531 185.2344 62.875 C 185.8594 61.7969 186.3906 60.8438 186.7969 60.0156 C 187.2031 59.1875 187.4688 58.6406 187.5938 58.375 C 187.6875 58.1563 187.75 57.9219 187.75 57.6875 L 187.75 57.6875 Z" fill="#261d01"/>
		<path d="M 191.4688 31.9375 C 191.2344 31.4063 190.9219 30.9219 190.5156 30.5156 C 190.1094 30.1094 189.625 29.7969 189.0938 29.5625 C 188.5625 29.3438 187.9844 29.2188 187.375 29.2188 C 186.75 29.2188 186.1563 29.3438 185.625 29.5625 C 185.0938 29.7969 184.625 30.1094 184.2188 30.5156 C 183.8125 30.9219 183.4844 31.4063 183.2656 31.9375 C 183.0313 32.4688 182.9219 33.0469 182.9219 33.6719 C 182.9219 34.9219 183.3438 35.9688 184.2188 36.8281 C 185.0781 37.6875 186.125 38.1094 187.375 38.1094 C 188.6094 38.1094 189.6563 37.6875 190.5156 36.8281 C 191.375 35.9688 191.8125 34.9219 191.8125 33.6719 C 191.8125 33.0469 191.6875 32.4688 191.4688 31.9375 L 191.4688 31.9375 ZM 184.4688 66.8438 C 184.8438 68.2656 185.4063 69.5 186.1719 70.5313 C 186.9375 71.5781 187.875 72.3906 188.9844 73.0313 C 190.0781 73.6406 191.375 73.9531 192.8438 73.9531 C 193.9688 73.9531 195.0938 73.6719 196.2031 73.125 C 197.3125 72.5625 198.375 71.8594 199.375 70.9531 C 200.375 70.0625 201.3281 69.0469 202.2344 67.9219 C 203.125 66.7969 203.9531 65.6719 204.7031 64.5313 C 205.4531 63.3906 206.1094 62.2813 206.7031 61.2031 C 207.2969 60.1406 207.7813 59.2188 208.1719 58.4688 C 208.2969 58.25 208.375 57.9688 208.375 57.6406 C 208.375 57.1875 208.2031 56.7656 207.8594 56.375 C 207.5156 55.9844 207.0781 55.7813 206.5625 55.7813 C 206.2031 55.7813 205.875 55.875 205.5781 56.0625 C 205.2813 56.25 205.0625 56.5 204.9063 56.8125 C 203.8906 58.8438 202.8594 60.6719 201.8281 62.3125 C 200.7813 63.9531 199.75 65.3594 198.7188 66.5313 C 197.6875 67.7031 196.6875 68.6094 195.7188 69.2656 C 194.7344 69.9219 193.7969 70.2344 192.8906 70.2344 C 192.3281 70.2344 191.75 70.1406 191.1563 69.9531 C 190.5469 69.7656 189.9688 69.375 189.4375 68.7813 C 188.9063 68.1875 188.4688 67.375 188.125 66.3125 C 187.7813 65.25 187.6094 63.8594 187.6094 62.1406 C 187.6094 60.875 187.6406 59.4844 187.7344 57.9688 C 187.8125 56.4531 187.9063 55.0156 188.0313 53.6719 C 188.1406 52.3281 188.2344 51.1563 188.3281 50.1719 C 188.4063 49.2031 188.4531 48.6094 188.4531 48.4219 C 188.4531 47.9375 188.2813 47.5 187.9531 47.125 C 187.625 46.75 187.2188 46.5625 186.7344 46.5625 C 186.1719 46.5625 185.7344 46.7344 185.3906 47.0781 C 185.0469 47.4219 184.8438 47.8125 184.7813 48.2656 C 184.1875 52.9219 183.9063 57.5938 183.9063 62.2813 C 183.9063 63.9063 184.0938 65.4375 184.4688 66.8438 L 184.4688 66.8438 ZM 188.5625 34.8438 C 188.2188 35.1719 187.8281 35.3281 187.375 35.3281 C 186.9063 35.3281 186.5156 35.1719 186.2031 34.8438 C 185.875 34.5313 185.7188 34.1406 185.7188 33.6719 C 185.7188 33.2188 185.875 32.8125 186.2031 32.4688 C 186.5156 32.125 186.9063 31.9531 187.375 31.9531 C 187.8281 31.9531 188.2188 32.125 188.5625 32.4688 C 188.9063 32.8125 189.0781 33.2188 189.0781 33.6719 C 189.0781 34.1406 188.9063 34.5313 188.5625 34.8438 L 188.5625 34.8438 Z" fill="#261d01"/>
		<path d="M 216.0156 64.0938 C 216.125 62.6875 216.25 61.2813 216.375 59.8594 C 216.5 58.4531 216.6094 57.125 216.6875 55.8906 C 216.7656 54.6563 216.8125 53.75 216.8125 53.1563 C 216.8125 52.375 216.7344 51.6094 216.5938 50.8594 C 216.4375 50.1094 216.2188 49.4375 215.9063 48.8125 C 215.5938 48.1875 215.1875 47.6875 214.6719 47.3125 C 214.1406 46.9375 213.5156 46.75 212.7656 46.75 C 211.4844 46.75 210.2031 47.5781 208.9219 49.2188 C 207.6406 50.875 206.2656 53.4375 204.8125 56.9063 C 204.7031 57.1719 204.6563 57.4219 204.6563 57.6406 C 204.6563 58.1406 204.8125 58.5625 205.1406 58.9375 C 205.4688 59.3125 205.9063 59.5 206.4688 59.5 C 206.8125 59.5 207.1563 59.4063 207.4844 59.2031 C 207.8125 59.0156 208.0625 58.7344 208.2188 58.375 C 209.3906 55.5469 210.3594 53.5781 211.1094 52.4531 C 211.8594 51.3281 212.375 50.7188 212.6719 50.6094 C 212.8594 50.7813 213 51.2344 213.0625 51.9844 C 213.125 52.7344 213.1563 53.5156 213.1563 54.3281 C 213.1563 54.9531 213.125 55.7188 213.0625 56.625 C 213 57.5313 212.9063 58.5156 212.8125 59.5781 C 212.7188 60.6406 212.6094 61.7031 212.5156 62.7656 C 212.4219 63.8438 212.3125 64.8438 212.2188 65.7813 L 211.9844 68.1719 C 211.9219 68.8438 211.8906 69.2969 211.8906 69.5156 C 211.8906 70.5625 212.1719 71.375 212.7344 71.9375 C 213.2969 72.4844 214.0625 72.7813 215.0156 72.7813 C 215.6875 72.7813 216.3438 72.5313 217 72.0781 C 217.6563 71.6094 218.3125 70.6875 218.9688 69.3125 C 219.2813 68.5938 219.7344 67.7031 220.3125 66.6094 C 220.875 65.5156 221.5 64.375 222.1719 63.1719 C 222.8281 61.9688 223.5469 60.75 224.3125 59.5313 C 225.0781 58.3125 225.8281 57.2031 226.5625 56.2344 C 227.2813 55.2656 227.9844 54.4688 228.6563 53.8594 C 229.3125 53.2656 229.9063 52.9531 230.4375 52.9531 C 230.6875 52.9531 230.9844 53.1406 231.3125 53.5156 C 231.6406 53.8906 231.8125 54.6094 231.8125 55.6406 C 231.8125 56.2656 231.7813 56.9063 231.7344 57.5938 C 231.6719 58.2813 231.6094 58.9688 231.5313 59.6563 C 231.4531 60.3438 231.3906 60.9844 231.3438 61.6094 C 231.2813 62.2344 231.2656 62.7813 231.2656 63.2656 C 231.2656 64.4063 231.3438 65.5313 231.5313 66.6563 C 231.7188 67.7813 232.0625 68.8125 232.5938 69.7344 C 233.1094 70.6719 233.8281 71.4219 234.7344 71.9844 C 235.6406 72.5313 236.8281 72.8281 238.2969 72.8281 C 239.5938 72.8281 240.8438 72.5 242.0313 71.8594 C 243.2188 71.2031 244.3281 70.3906 245.3594 69.4219 C 246.375 68.4531 247.3125 67.3594 248.1563 66.1719 C 249 64.9844 249.75 63.8594 250.3906 62.7969 C 251.0156 61.7344 251.5313 60.7969 251.9219 59.9844 C 252.3125 59.1719 252.5781 58.6406 252.7031 58.375 C 252.7969 58.1563 252.8594 57.9219 252.8594 57.6875 C 252.8594 57.25 252.6875 56.8125 252.3438 56.4063 C 252 56 251.5469 55.7813 251 55.7813 C 250.6406 55.7813 250.3125 55.8906 250 56.0781 C 249.6875 56.2813 249.4531 56.5625 249.2969 56.9063 C 248.9219 57.7656 248.375 58.875 247.6563 60.2344 C 246.9219 61.6094 246.0625 62.9531 245.0625 64.2656 C 244.0625 65.5781 242.9844 66.7188 241.8125 67.6875 C 240.6406 68.6563 239.4375 69.125 238.2031 69.125 C 237.5156 69.125 236.9688 68.9688 236.5469 68.6563 C 236.1094 68.3438 235.7813 67.9219 235.5625 67.3906 C 235.3438 66.8594 235.1875 66.2344 235.1094 65.5156 C 235.0156 64.7969 234.9844 64.0469 234.9844 63.2656 C 234.9844 62.6406 235 61.9844 235.0469 61.2813 C 235.0938 60.5938 235.1406 59.9063 235.2031 59.2188 C 235.25 58.5313 235.2969 57.8906 235.3438 57.2813 C 235.3906 56.6875 235.4219 56.1719 235.4219 55.7344 C 235.4219 53.9219 235.0156 52.3906 234.2031 51.1563 C 233.3906 49.9219 232.125 49.2969 230.4375 49.2969 C 229.5938 49.2969 228.6875 49.5625 227.7344 50.0625 C 226.7656 50.5625 225.8125 51.3906 224.875 52.5156 C 223.9219 53.7031 223.0156 54.9375 222.1563 56.2344 C 221.2969 57.5469 220.4844 58.8594 219.7031 60.1719 C 218.9219 61.4844 218.1875 62.7969 217.5 64.0781 C 216.8125 65.3594 216.2188 66.5469 215.7031 67.6094 C 215.7969 66.6719 215.8906 65.5 216.0156 64.0938 L 216.0156 64.0938 Z" fill="#261d01"/>
		<path d="M 256.4688 31.9375 C 256.2344 31.4063 255.9219 30.9219 255.5156 30.5156 C 255.1094 30.1094 254.625 29.7969 254.0938 29.5625 C 253.5625 29.3438 252.9844 29.2188 252.375 29.2188 C 251.75 29.2188 251.1563 29.3438 250.625 29.5625 C 250.0938 29.7969 249.625 30.1094 249.2188 30.5156 C 248.8125 30.9219 248.4844 31.4063 248.2656 31.9375 C 248.0313 32.4688 247.9219 33.0469 247.9219 33.6719 C 247.9219 34.9219 248.3438 35.9688 249.2188 36.8281 C 250.0781 37.6875 251.125 38.1094 252.375 38.1094 C 253.6094 38.1094 254.6563 37.6875 255.5156 36.8281 C 256.375 35.9688 256.8125 34.9219 256.8125 33.6719 C 256.8125 33.0469 256.6875 32.4688 256.4688 31.9375 L 256.4688 31.9375 ZM 249.4688 66.8438 C 249.8438 68.2656 250.4063 69.5 251.1719 70.5313 C 251.9375 71.5781 252.875 72.3906 253.9844 73.0313 C 255.0781 73.6406 256.375 73.9531 257.8438 73.9531 C 258.9688 73.9531 260.0938 73.6719 261.2031 73.125 C 262.3125 72.5625 263.375 71.8594 264.375 70.9531 C 265.375 70.0625 266.3281 69.0469 267.2344 67.9219 C 268.125 66.7969 268.9531 65.6719 269.7031 64.5313 C 270.4531 63.3906 271.1094 62.2813 271.7031 61.2031 C 272.2969 60.1406 272.7813 59.2188 273.1719 58.4688 C 273.2969 58.25 273.375 57.9688 273.375 57.6406 C 273.375 57.1875 273.2031 56.7656 272.8594 56.375 C 272.5156 55.9844 272.0781 55.7813 271.5625 55.7813 C 271.2031 55.7813 270.875 55.875 270.5781 56.0625 C 270.2813 56.25 270.0625 56.5 269.9063 56.8125 C 268.8906 58.8438 267.8594 60.6719 266.8281 62.3125 C 265.7813 63.9531 264.75 65.3594 263.7188 66.5313 C 262.6875 67.7031 261.6875 68.6094 260.7188 69.2656 C 259.7344 69.9219 258.7969 70.2344 257.8906 70.2344 C 257.3281 70.2344 256.75 70.1406 256.1563 69.9531 C 255.5469 69.7656 254.9688 69.375 254.4375 68.7813 C 253.9063 68.1875 253.4688 67.375 253.125 66.3125 C 252.7813 65.25 252.6094 63.8594 252.6094 62.1406 C 252.6094 60.875 252.6406 59.4844 252.7344 57.9688 C 252.8125 56.4531 252.9063 55.0156 253.0313 53.6719 C 253.1406 52.3281 253.2344 51.1563 253.3281 50.1719 C 253.4063 49.2031 253.4531 48.6094 253.4531 48.4219 C 253.4531 47.9375 253.2813 47.5 252.9531 47.125 C 252.625 46.75 252.2188 46.5625 251.7344 46.5625 C 251.1719 46.5625 250.7344 46.7344 250.3906 47.0781 C 250.0469 47.4219 249.8438 47.8125 249.7813 48.2656 C 249.1875 52.9219 248.9063 57.5938 248.9063 62.2813 C 248.9063 63.9063 249.0938 65.4375 249.4688 66.8438 L 249.4688 66.8438 ZM 253.5625 34.8438 C 253.2188 35.1719 252.8281 35.3281 252.375 35.3281 C 251.9063 35.3281 251.5156 35.1719 251.2031 34.8438 C 250.875 34.5313 250.7188 34.1406 250.7188 33.6719 C 250.7188 33.2188 250.875 32.8125 251.2031 32.4688 C 251.5156 32.125 251.9063 31.9531 252.375 31.9531 C 252.8281 31.9531 253.2188 32.125 253.5625 32.4688 C 253.9063 32.8125 254.0781 33.2188 254.0781 33.6719 C 254.0781 34.1406 253.9063 34.5313 253.5625 34.8438 L 253.5625 34.8438 Z" fill="#261d01"/>
		<path d="M 297.8281 57.6875 C 297.8281 57.2031 297.6563 56.7656 297.3125 56.375 C 296.9688 55.9844 296.5313 55.7813 295.9844 55.7813 C 295.6094 55.7813 295.2813 55.875 295 56.0625 C 294.7031 56.25 294.4688 56.5 294.3125 56.8125 C 293.8906 57.6875 293.2969 58.8594 292.5313 60.3125 C 291.7656 61.7656 290.875 63.1875 289.875 64.5781 C 288.8594 65.9844 287.75 67.1875 286.5469 68.2188 C 285.3438 69.25 284.0938 69.75 282.7969 69.75 C 280.875 69.75 279.2344 68.5781 277.8594 66.2188 C 276.4844 63.8594 275.4063 60.6094 274.5938 56.4688 C 276.4063 53.1563 278.125 49.75 279.7188 46.25 C 281.3125 42.75 282.6875 39.25 283.8594 35.7344 C 285.0313 32.2188 285.9531 28.7188 286.6406 25.25 C 287.3281 21.7813 287.6719 18.4219 287.6719 15.1563 C 287.6719 12.5313 287.5 10.2969 287.1875 8.4688 C 286.8594 6.6563 286.4063 5.1719 285.8125 4.0313 C 285.2188 2.9063 284.5 2.0781 283.6406 1.5781 C 282.7813 1.0781 281.8125 0.8125 280.75 0.8125 C 279.375 0.8125 278.1406 1.375 277.0781 2.4688 C 276 3.5781 275.0469 5.0781 274.2188 6.9688 C 273.3906 8.8594 272.6719 11.0625 272.0781 13.5625 C 271.4688 16.0625 270.9688 18.7188 270.5781 21.5156 C 270.1875 24.3125 269.9063 27.1719 269.7344 30.1094 C 269.5469 33.0469 269.4688 35.875 269.4688 38.5938 C 269.4688 40.5 269.5156 42.6563 269.6406 45.0938 C 269.75 47.5313 269.9688 50.0469 270.2969 52.6406 C 270.6094 55.2344 271.0781 57.7656 271.6875 60.25 C 272.2813 62.75 273.0781 64.9688 274.0469 66.9219 C 275.0156 68.875 276.2031 70.4531 277.6094 71.6563 C 279.0156 72.8594 280.6875 73.4688 282.6563 73.4688 C 283.9063 73.4688 285.1094 73.1875 286.2344 72.6719 C 287.3594 72.125 288.4063 71.4375 289.4063 70.5625 C 290.4063 69.7031 291.3281 68.7344 292.1719 67.6406 C 293.0156 66.5469 293.7656 65.4531 294.4531 64.3438 C 295.1406 63.2344 295.75 62.1719 296.2969 61.1406 C 296.8281 60.1094 297.2813 59.2188 297.6406 58.4688 C 297.7656 58.1563 297.8281 57.8906 297.8281 57.6875 L 297.8281 57.6875 ZM 273.4375 30.5938 C 273.625 27.8281 273.8594 25.1719 274.1719 22.6406 C 274.4844 20.1094 274.8594 17.7344 275.3281 15.5156 C 275.7813 13.2969 276.2813 11.375 276.8438 9.75 C 277.3906 8.125 277.9844 6.8281 278.625 5.8906 C 279.25 4.9531 279.9063 4.4688 280.5938 4.4688 C 281.625 4.4688 282.4531 5.3125 283.0781 6.9688 C 283.7031 8.625 284.0156 11.375 284.0156 15.2188 C 284.0156 17.9531 283.7188 20.8281 283.1563 23.8281 C 282.5938 26.8438 281.8281 29.875 280.8906 32.9219 C 279.9375 35.9688 278.8438 38.9844 277.6094 41.9531 C 276.375 44.9219 275.0781 47.7344 273.7188 50.375 C 273.5469 48.625 273.4063 46.7813 273.3125 44.8594 C 273.2188 42.9375 273.1719 40.9375 273.1719 38.8438 C 273.1719 36.125 273.25 33.375 273.4375 30.5938 L 273.4375 30.5938 Z" fill="#261d01"/>
		<path d="M 321.8281 57.6875 C 321.8281 57.2031 321.6563 56.7656 321.3125 56.375 C 320.9688 55.9844 320.5313 55.7813 319.9844 55.7813 C 319.6094 55.7813 319.2813 55.875 319 56.0625 C 318.7031 56.25 318.4688 56.5 318.3125 56.8125 C 317.8906 57.6875 317.2969 58.8594 316.5313 60.3125 C 315.7656 61.7656 314.875 63.1875 313.875 64.5781 C 312.8594 65.9844 311.75 67.1875 310.5469 68.2188 C 309.3438 69.25 308.0938 69.75 306.7969 69.75 C 304.875 69.75 303.2344 68.5781 301.8594 66.2188 C 300.4844 63.8594 299.4063 60.6094 298.5938 56.4688 C 300.4063 53.1563 302.125 49.75 303.7188 46.25 C 305.3125 42.75 306.6875 39.25 307.8594 35.7344 C 309.0313 32.2188 309.9531 28.7188 310.6406 25.25 C 311.3281 21.7813 311.6719 18.4219 311.6719 15.1563 C 311.6719 12.5313 311.5 10.2969 311.1875 8.4688 C 310.8594 6.6563 310.4063 5.1719 309.8125 4.0313 C 309.2188 2.9063 308.5 2.0781 307.6406 1.5781 C 306.7813 1.0781 305.8125 0.8125 304.75 0.8125 C 303.375 0.8125 302.1406 1.375 301.0781 2.4688 C 300 3.5781 299.0469 5.0781 298.2188 6.9688 C 297.3906 8.8594 296.6719 11.0625 296.0781 13.5625 C 295.4688 16.0625 294.9688 18.7188 294.5781 21.5156 C 294.1875 24.3125 293.9063 27.1719 293.7344 30.1094 C 293.5469 33.0469 293.4688 35.875 293.4688 38.5938 C 293.4688 40.5 293.5156 42.6563 293.6406 45.0938 C 293.75 47.5313 293.9688 50.0469 294.2969 52.6406 C 294.6094 55.2344 295.0781 57.7656 295.6875 60.25 C 296.2813 62.75 297.0781 64.9688 298.0469 66.9219 C 299.0156 68.875 300.2031 70.4531 301.6094 71.6563 C 303.0156 72.8594 304.6875 73.4688 306.6563 73.4688 C 307.9063 73.4688 309.1094 73.1875 310.2344 72.6719 C 311.3594 72.125 312.4063 71.4375 313.4063 70.5625 C 314.4063 69.7031 315.3281 68.7344 316.1719 67.6406 C 317.0156 66.5469 317.7656 65.4531 318.4531 64.3438 C 319.1406 63.2344 319.75 62.1719 320.2969 61.1406 C 320.8281 60.1094 321.2813 59.2188 321.6406 58.4688 C 321.7656 58.1563 321.8281 57.8906 321.8281 57.6875 L 321.8281 57.6875 ZM 297.4375 30.5938 C 297.625 27.8281 297.8594 25.1719 298.1719 22.6406 C 298.4844 20.1094 298.8594 17.7344 299.3281 15.5156 C 299.7813 13.2969 300.2813 11.375 300.8438 9.75 C 301.3906 8.125 301.9844 6.8281 302.625 5.8906 C 303.25 4.9531 303.9063 4.4688 304.5938 4.4688 C 305.625 4.4688 306.4531 5.3125 307.0781 6.9688 C 307.7031 8.625 308.0156 11.375 308.0156 15.2188 C 308.0156 17.9531 307.7188 20.8281 307.1563 23.8281 C 306.5938 26.8438 305.8281 29.875 304.8906 32.9219 C 303.9375 35.9688 302.8438 38.9844 301.6094 41.9531 C 300.375 44.9219 299.0781 47.7344 297.7188 50.375 C 297.5469 48.625 297.4063 46.7813 297.3125 44.8594 C 297.2188 42.9375 297.1719 40.9375 297.1719 38.8438 C 297.1719 36.125 297.25 33.375 297.4375 30.5938 L 297.4375 30.5938 Z" fill="#261d01"/>
		<path d="M 355.75 57.6875 C 355.75 57.25 355.5781 56.8125 355.2344 56.4063 C 354.8906 56 354.4375 55.7813 353.8906 55.7813 C 353.5313 55.7813 353.2031 55.8906 352.8906 56.0781 C 352.5781 56.2813 352.3438 56.5625 352.1875 56.9063 C 351.8906 57.5313 351.5313 58.2656 351.1094 59.1094 C 350.6719 59.9531 350.1875 60.8438 349.6406 61.75 C 349.0781 62.6563 348.4688 63.5625 347.8125 64.4531 C 347.1406 65.3594 346.4375 66.1563 345.7031 66.8438 C 344.9688 67.5469 344.2188 68.1094 343.4531 68.5313 C 342.6875 68.9688 341.9219 69.1719 341.1406 69.1719 C 339.9375 69.1719 339 68.7656 338.3125 67.9531 C 337.625 67.1406 337.125 66.1719 336.7813 65.0625 C 336.4375 63.9688 336.2031 62.8438 336.1094 61.7188 C 336.0156 60.5938 335.9531 59.7344 335.9219 59.1094 C 335.8906 58.6563 335.7031 58.25 335.3594 57.8906 C 335.0156 57.5313 334.6094 57.3438 334.1719 57.3438 C 333.6719 57.3438 333.25 57.5 332.8906 57.8125 C 332.5313 58.125 332.3281 58.5156 332.2656 58.9688 C 332.0313 60.6563 331.625 62.125 331.0625 63.3594 C 330.4844 64.6094 329.8438 65.625 329.1563 66.4375 C 328.4531 67.25 327.7188 67.8594 326.9531 68.25 C 326.1875 68.6406 325.5156 68.8281 324.9375 68.8281 C 324.125 68.8281 323.4375 68.6719 322.8906 68.3438 C 322.3281 68.0156 321.8906 67.5938 321.5625 67.0625 C 321.2344 66.5469 321 65.9688 320.875 65.3281 C 320.75 64.7031 320.6875 64.0781 320.6875 63.4531 C 320.6875 61.4688 321 59.75 321.6406 58.2969 C 322.2656 56.8594 323.0625 55.6563 324 54.6875 C 324.9375 53.7344 325.9844 53.0313 327.125 52.5625 C 328.2656 52.1094 329.3438 51.875 330.3594 51.875 C 331.0313 51.875 331.6406 51.9531 332.1875 52.1094 C 332.7188 52.2656 333.1875 52.4375 333.5781 52.625 C 333.9688 52.8125 334.2813 53 334.5 53.1719 C 334.7188 53.3594 334.875 53.4844 334.9531 53.5469 C 335.2969 53.9063 335.7344 54.0781 336.2656 54.0781 C 336.75 54.0781 337.1719 53.8906 337.5313 53.5156 C 337.8906 53.1406 338.0781 52.7188 338.0781 52.2188 C 338.0781 51.7813 337.8906 51.3438 337.5313 50.9063 C 337.5 50.875 337.3125 50.7344 337 50.4531 C 336.6719 50.1719 336.2031 49.875 335.6094 49.5469 C 335 49.2188 334.2656 48.9219 333.4219 48.6406 C 332.5781 48.3594 331.6563 48.2188 330.6563 48.2188 C 329.1563 48.2188 327.5938 48.5469 325.9844 49.2031 C 324.3594 49.8594 322.8906 50.8281 321.5625 52.125 C 320.2188 53.4375 319.125 55.0469 318.2656 56.9844 C 317.4063 58.9219 316.9844 61.1719 316.9844 63.7031 C 316.9844 64.9844 317.1563 66.1563 317.5313 67.2188 C 317.9063 68.2969 318.4375 69.2344 319.125 70.0313 C 319.8125 70.8281 320.6406 71.4375 321.6094 71.875 C 322.5781 72.3125 323.6719 72.5313 324.8906 72.5313 C 326.4219 72.5313 327.9375 72 329.4688 70.9063 C 331 69.8125 332.3125 68.3438 333.4375 66.4844 C 334.0156 68.3125 334.9531 69.8281 336.2344 71.0313 C 337.5156 72.2188 339.1094 72.8281 341 72.8281 C 342.3281 72.8281 343.5938 72.5 344.7969 71.875 C 346 71.25 347.125 70.4375 348.1719 69.4688 C 349.2031 68.5 350.1563 67.4219 351 66.25 C 351.8438 65.0781 352.5938 63.9531 353.2344 62.875 C 353.8594 61.7969 354.3906 60.8438 354.7969 60.0156 C 355.2031 59.1875 355.4688 58.6406 355.5938 58.375 C 355.6875 58.1563 355.75 57.9219 355.75 57.6875 L 355.75 57.6875 Z" fill="#261d01"/>
		<path d="M 0 51 C 0 26.1469 20.1469 6 45 6 C 69.8531 6 90 26.1469 90 51 C 90 75.8531 69.8531 96 45 96 C 20.1469 96 0 75.8531 0 51 Z" fill="#f7ce68"/>
		<path d="M 65.5781 51.0781 C 66.875 52.6719 68.3281 54.1094 69.9219 55.375 C 71.5156 56.6406 73.2969 57.6875 75.25 58.5 C 77.2031 59.3125 79.3125 59.7188 81.5938 59.7188 C 83.5469 59.7188 85.3281 59.375 86.9219 58.6875 C 88.5156 58 89.8906 57.1406 91.0625 56.0938 C 92.2344 55.0625 93.2031 53.9531 93.9531 52.7813 C 94.7031 51.6094 95.2656 50.5625 95.6563 49.6563 C 95.8438 49.2031 95.9531 48.75 95.9531 48.2813 C 95.9531 47.3125 95.5938 46.4531 94.875 45.7031 C 94.1563 44.9531 93.2813 44.5781 92.25 44.5781 C 91.4688 44.5781 90.7656 44.7969 90.1406 45.2188 C 89.5156 45.6406 89.0781 46.2031 88.8281 46.9219 C 88.8281 46.9844 88.6719 47.3125 88.3906 47.9063 C 88.0938 48.5 87.6563 49.1094 87.0625 49.7656 C 86.4688 50.4219 85.7188 51 84.8125 51.5156 C 83.9063 52.0469 82.8281 52.2969 81.5938 52.2969 C 79.3125 52.2969 77.2969 51.7188 75.5469 50.5469 C 73.7813 49.375 72.2344 47.9219 70.9063 46.1875 C 69.5625 44.4688 68.4219 42.5938 67.4844 40.5781 C 66.5469 38.5625 65.7656 36.6875 65.1406 34.9688 C 64.5156 33.25 64.0781 31.8281 63.8281 30.7188 C 63.5625 29.6094 63.4375 29.0781 63.4375 29.1406 C 63.2344 28.2344 62.7969 27.5313 62.1094 27 C 61.4219 26.4844 60.6719 26.2188 59.8281 26.2188 C 58.7031 26.2188 57.8125 26.5938 57.125 27.3438 C 56.4375 28.0938 56.1094 29.0313 56.1094 30.125 C 56.1094 30.7813 56.125 31.4063 56.1563 32.0313 C 56.1875 32.6563 56.2031 33.2813 56.2031 33.9375 C 56.2031 37.125 55.8906 40.2656 55.2813 43.3594 C 54.6563 46.4531 53.8438 49.3906 52.8438 52.1563 C 51.8281 54.9219 50.7188 57.4688 49.5156 59.8125 C 48.3125 62.1563 47.1406 64.1875 46 65.875 C 44.8594 67.5625 43.7813 68.9063 42.7813 69.875 C 41.7656 70.8438 41 71.3281 40.4844 71.3281 C 39.7031 71.3281 38.7031 70.6719 37.5 69.3281 C 36.2969 68 35.1406 66.1563 34.0313 63.8125 C 32.9219 61.4688 31.9844 58.6719 31.2031 55.4219 C 30.4219 52.1719 30.0313 48.6094 30.0313 44.7656 C 30.0313 41.5156 30.2813 39.0781 30.8125 37.4531 C 31.3281 35.8281 31.625 34.9375 31.7031 34.8125 C 31.9531 34.3594 32.0938 33.8125 32.0938 33.1563 C 32.0938 32.25 31.7656 31.4063 31.1094 30.6563 C 30.4531 29.9063 29.5781 29.5313 28.4688 29.5313 C 27.75 29.5313 27.125 29.7031 26.5625 30.0313 C 26 30.3594 25.5625 30.8125 25.25 31.3906 C 25.0469 31.7188 24.5781 32.9844 23.8281 35.2031 C 23.0781 37.4219 22.7188 40.6719 22.7188 44.9688 C 22.7188 49.8594 23.3281 54.3906 24.5625 58.5469 C 25.7969 62.7188 27.3438 66.3125 29.2031 69.3438 C 31.0469 72.375 33 74.7344 35.0625 76.4219 C 37.1094 78.0938 38.9844 78.9531 40.6875 78.9531 C 42.1719 78.8125 43.9531 77.8906 46.0469 76.2188 C 48.125 74.5313 50.1875 72.2188 52.25 69.2813 C 54.2969 66.3594 56.2344 62.9219 58.0625 58.9844 C 59.875 55.0469 61.2813 50.7969 62.2656 46.2344 C 63.1719 47.8594 64.2656 49.4844 65.5781 51.0781 L 65.5781 51.0781 Z" fill="#ffffff"/>
	</g>
</svg>
